<mxfile host="app.diagrams.net" agent="Mozilla/5.0 (X11; Linux x86_64; rv:132.0) Gecko/20100101 Firefox/132.0" version="27.0.8">
  <diagram id="Rl2tTcnvkNBKjJy9MVH-" name="Page-1">
    <mxGraphModel dx="872" dy="446" grid="1" gridSize="10" guides="1" tooltips="1" connect="1" arrows="1" fold="1" page="1" pageScale="1" pageWidth="850" pageHeight="1100" math="0" shadow="0">
      <root>
        <mxCell id="0" />
        <mxCell id="1" parent="0" />
        <mxCell id="WJBdi-upM3fzT2lZA9f5-1" value="" style="rounded=0;whiteSpace=wrap;html=1;" parent="1" vertex="1">
          <mxGeometry x="160" y="260" width="160" height="130" as="geometry" />
        </mxCell>
        <mxCell id="WJBdi-upM3fzT2lZA9f5-3" value="&lt;font style=&quot;font-size: 13px;&quot;&gt;&lt;b&gt;common-lisp-user&lt;/b&gt;&lt;/font&gt;" style="rounded=0;whiteSpace=wrap;html=1;" parent="1" vertex="1">
          <mxGeometry x="160" y="260" width="130" height="30" as="geometry" />
        </mxCell>
        <mxCell id="WJBdi-upM3fzT2lZA9f5-4" value="&lt;font style=&quot;font-size: 15px;&quot;&gt;&#39;car&lt;/font&gt;" style="text;html=1;strokeColor=none;fillColor=none;align=center;verticalAlign=middle;whiteSpace=wrap;rounded=0;" parent="1" vertex="1">
          <mxGeometry x="230" y="310" width="40" height="20" as="geometry" />
        </mxCell>
        <mxCell id="WJBdi-upM3fzT2lZA9f5-5" value="&lt;font style=&quot;font-size: 15px;&quot;&gt;&#39;cdr&lt;/font&gt;" style="text;html=1;strokeColor=none;fillColor=none;align=center;verticalAlign=middle;whiteSpace=wrap;rounded=0;" parent="1" vertex="1">
          <mxGeometry x="230" y="330" width="40" height="20" as="geometry" />
        </mxCell>
        <mxCell id="WJBdi-upM3fzT2lZA9f5-7" value="&lt;font style=&quot;font-size: 15px;&quot;&gt;...etc.&lt;/font&gt;" style="text;html=1;strokeColor=none;fillColor=none;align=center;verticalAlign=middle;whiteSpace=wrap;rounded=0;" parent="1" vertex="1">
          <mxGeometry x="230" y="350" width="40" height="20" as="geometry" />
        </mxCell>
        <mxCell id="WJBdi-upM3fzT2lZA9f5-8" value="" style="shape=umlActor;verticalLabelPosition=bottom;verticalAlign=top;html=1;outlineConnect=0;" parent="1" vertex="1">
          <mxGeometry x="180" y="310" width="30" height="60" as="geometry" />
        </mxCell>
        <mxCell id="cUuy-UMX4CfvKLHZJ8_Q-1" value="" style="rounded=0;whiteSpace=wrap;html=1;" vertex="1" parent="1">
          <mxGeometry x="350" y="260" width="110" height="130" as="geometry" />
        </mxCell>
        <mxCell id="cUuy-UMX4CfvKLHZJ8_Q-2" value="&lt;font style=&quot;font-size: 13px;&quot;&gt;&lt;b&gt;beatles&lt;/b&gt;&lt;/font&gt;" style="rounded=0;whiteSpace=wrap;html=1;" vertex="1" parent="1">
          <mxGeometry x="350" y="260" width="70" height="30" as="geometry" />
        </mxCell>
        <mxCell id="cUuy-UMX4CfvKLHZJ8_Q-3" value="&lt;font style=&quot;font-size: 15px;&quot;&gt;&#39;play&lt;/font&gt;" style="text;html=1;strokeColor=none;fillColor=none;align=center;verticalAlign=middle;whiteSpace=wrap;rounded=0;" vertex="1" parent="1">
          <mxGeometry x="385" y="300" width="40" height="20" as="geometry" />
        </mxCell>
        <mxCell id="cUuy-UMX4CfvKLHZJ8_Q-4" value="&lt;font style=&quot;font-size: 15px;&quot;&gt;&#39;sing&lt;/font&gt;" style="text;html=1;strokeColor=none;fillColor=none;align=center;verticalAlign=middle;whiteSpace=wrap;rounded=0;" vertex="1" parent="1">
          <mxGeometry x="385" y="320" width="40" height="20" as="geometry" />
        </mxCell>
        <mxCell id="cUuy-UMX4CfvKLHZJ8_Q-7" value="&lt;font style=&quot;font-size: 15px;&quot;&gt;&#39;car (from CL)&lt;/font&gt;" style="text;html=1;strokeColor=none;fillColor=none;align=center;verticalAlign=middle;whiteSpace=wrap;rounded=0;" vertex="1" parent="1">
          <mxGeometry x="355" y="340" width="105" height="20" as="geometry" />
        </mxCell>
        <mxCell id="cUuy-UMX4CfvKLHZJ8_Q-8" value="&lt;font style=&quot;font-size: 15px;&quot;&gt;...etc.&lt;/font&gt;" style="text;html=1;strokeColor=none;fillColor=none;align=center;verticalAlign=middle;whiteSpace=wrap;rounded=0;" vertex="1" parent="1">
          <mxGeometry x="385" y="360" width="40" height="20" as="geometry" />
        </mxCell>
        <mxCell id="cUuy-UMX4CfvKLHZJ8_Q-9" value="" style="rounded=0;whiteSpace=wrap;html=1;" vertex="1" parent="1">
          <mxGeometry x="490" y="260" width="160" height="130" as="geometry" />
        </mxCell>
        <mxCell id="cUuy-UMX4CfvKLHZJ8_Q-10" value="&lt;font style=&quot;font-size: 13px;&quot;&gt;&lt;b&gt;stones&lt;/b&gt;&lt;/font&gt;" style="rounded=0;whiteSpace=wrap;html=1;" vertex="1" parent="1">
          <mxGeometry x="490" y="260" width="120" height="30" as="geometry" />
        </mxCell>
        <mxCell id="cUuy-UMX4CfvKLHZJ8_Q-11" value="&lt;font style=&quot;font-size: 15px;&quot;&gt;&#39;play (from beatles)&lt;br&gt;&lt;/font&gt;" style="text;html=1;strokeColor=none;fillColor=none;align=center;verticalAlign=middle;whiteSpace=wrap;rounded=0;" vertex="1" parent="1">
          <mxGeometry x="502.5" y="300" width="135" height="20" as="geometry" />
        </mxCell>
        <mxCell id="cUuy-UMX4CfvKLHZJ8_Q-12" value="&lt;font style=&quot;font-size: 15px;&quot;&gt;&#39;sing&lt;br&gt;&lt;/font&gt;" style="text;html=1;strokeColor=none;fillColor=none;align=center;verticalAlign=middle;whiteSpace=wrap;rounded=0;" vertex="1" parent="1">
          <mxGeometry x="535" y="320" width="40" height="20" as="geometry" />
        </mxCell>
        <mxCell id="cUuy-UMX4CfvKLHZJ8_Q-13" value="&lt;font style=&quot;font-size: 15px;&quot;&gt;&#39;car (from CL)&lt;/font&gt;" style="text;html=1;strokeColor=none;fillColor=none;align=center;verticalAlign=middle;whiteSpace=wrap;rounded=0;" vertex="1" parent="1">
          <mxGeometry x="505" y="340" width="105" height="20" as="geometry" />
        </mxCell>
        <mxCell id="cUuy-UMX4CfvKLHZJ8_Q-14" value="&lt;font style=&quot;font-size: 15px;&quot;&gt;...etc.&lt;/font&gt;" style="text;html=1;strokeColor=none;fillColor=none;align=center;verticalAlign=middle;whiteSpace=wrap;rounded=0;" vertex="1" parent="1">
          <mxGeometry x="535" y="360" width="40" height="20" as="geometry" />
        </mxCell>
        <mxCell id="cUuy-UMX4CfvKLHZJ8_Q-15" value="" style="edgeStyle=none;orthogonalLoop=1;jettySize=auto;html=1;rounded=0;" edge="1" parent="1">
          <mxGeometry width="80" relative="1" as="geometry">
            <mxPoint x="430" y="270" as="sourcePoint" />
            <mxPoint x="510" y="270" as="targetPoint" />
            <Array as="points" />
          </mxGeometry>
        </mxCell>
      </root>
    </mxGraphModel>
  </diagram>
</mxfile>
